<svg xmlns="http://www.w3.org/2000/svg" preserveAspectRatio="xMidYMid" width="31.375" height="31.4" viewBox="0 0 31.375 31.4"><defs><style>.cls-1{fill:#fff;opacity:.8;fill-rule:evenodd}</style></defs><path d="M15.677 31.389c-8.666 0-15.692-7.026-15.692-15.692S7.011.005 15.677.005s15.692 7.026 15.692 15.692-7.026 15.692-15.692 15.692zm8.647-22.015a7.294 7.294 0 0 1-2.313.884 3.643 3.643 0 0 0-6.206 3.322 10.343 10.343 0 0 1-7.508-3.806 3.632 3.632 0 0 0-.493 1.832 3.64 3.64 0 0 0 1.621 3.031 3.636 3.636 0 0 1-1.65-.455l-.001.045a3.646 3.646 0 0 0 2.922 3.572 3.65 3.65 0 0 1-1.645.062 3.646 3.646 0 0 0 3.403 2.529 7.303 7.303 0 0 1-5.393 1.509 10.315 10.315 0 0 0 5.584 1.636c6.699 0 10.363-5.55 10.363-10.363 0-.158-.004-.315-.011-.471a7.422 7.422 0 0 0 1.818-1.885 7.308 7.308 0 0 1-2.092.573 3.655 3.655 0 0 0 1.601-2.015z" class="cls-1"/></svg>