<svg xmlns="http://www.w3.org/2000/svg" preserveAspectRatio="xMidYMid" width="31.375" height="31.41" viewBox="0 0 31.375 31.41"><defs><style>.cls-1{fill:#fff;opacity:.8;fill-rule:evenodd}</style></defs><path d="M15.677 31.391c-8.667 0-15.692-7.025-15.692-15.692C-.015 7.033 7.01.008 15.677.008c8.666 0 15.691 7.025 15.691 15.691 0 8.667-7.025 15.692-15.691 15.692zm5.21-15.334c-.504-.546-1.178-.905-2.016-1.082v-.072a2.935 2.935 0 0 0 1.371-1.144c.333-.517.499-1.106.499-1.77 0-.574-.122-1.079-.362-1.518-.24-.436-.605-.789-1.091-1.051a4.305 4.305 0 0 0-1.446-.476c-.514-.079-1.272-.116-2.269-.116h-4.804v13.597h5.442c.945 0 1.721-.085 2.332-.256a4.792 4.792 0 0 0 1.686-.857 3.64 3.64 0 0 0 1.032-1.268c.256-.513.383-1.107.383-1.784 0-.923-.252-1.657-.757-2.203zm-3.653 3.609a2.88 2.88 0 0 1-1.041.246c-.34.013-.954.019-1.842.019h-.184v-3.404h.63c.607 0 1.094.003 1.456.013.361.008.647.052.853.134.34.121.596.299.767.539.172.236.255.564.255.984 0 .328-.071.622-.214.88-.144.259-.368.454-.68.589zm-.682-5.676c-.25.115-.493.178-.727.19-.234.013-.645.019-1.228.019h-.43v-2.877h.237c.608 0 1.066.003 1.374.012.309.01.574.063.798.162.241.103.415.272.527.502.112.231.169.456.169.677 0 .295-.054.558-.157.786-.102.223-.292.401-.563.529z" class="cls-1"/></svg>