<svg xmlns="http://www.w3.org/2000/svg" preserveAspectRatio="xMidYMid" width="16.687" height="16.688" viewBox="0 0 16.687 16.688"><defs><style>.cls-1{fill:#fff;fill-rule:evenodd}</style></defs><path d="M11.936 10.497h-.758l-.264-.262a6.161 6.161 0 0 0 1.497-4.029c0-3.424-2.779-6.2-6.206-6.2a6.203 6.203 0 0 0-6.206 6.2 6.202 6.202 0 0 0 10.24 4.704l.263.262v.755l4.773 4.76 1.423-1.422-4.762-4.768zm-5.731 0a4.295 4.295 0 0 1-4.297-4.291 4.294 4.294 0 0 1 4.297-4.292 4.293 4.293 0 0 1 4.296 4.292 4.294 4.294 0 0 1-4.296 4.291z" class="cls-1"/></svg>