<svg xmlns="http://www.w3.org/2000/svg" preserveAspectRatio="xMidYMid" width="47.406" height="47.38" viewBox="0 0 47.406 47.38"><defs><style>.cls-1{fill:#323232;fill-rule:evenodd}</style></defs><path d="M39.109 23.187c-.259.39-.879 1.047-2.127 1.047-.89 0-2.201-.38-3.256-.84.229 2.521-.273 5.392-1.576 8.343.472.954.672 2 .517 3.079-.488 3.386-4.283 5.239-8.524 5.239-4.242 0-8.018-1.853-8.48-5.239a5.163 5.163 0 0 1 .33-2.617c-1.443-3.081-2.012-6.091-1.786-8.725-1.019.423-2.228.76-3.065.76-1.248 0-1.868-.657-2.127-1.047-.427-.646-.485-1.452-.162-2.214.812-1.912 3.593-2.743 4.75-3.012l.096-.022c-1.399-2.901-.723-7.601-.197-9.191l3.057.253c.056 1.004.766 2.881 3.436 5.01l1.585 1.092c.75-.141 1.537-.237 2.397-.237.818 0 1.57.089 2.289.217l1.692-1.165c2.67-2.129 3.379-4.007 3.435-5.01l3.058-.254c.528 1.599 1.207 6.342-.224 9.239l.294.068c1.157.269 3.937 1.1 4.75 3.012.323.762.265 1.568-.162 2.214zM14.04 19.91s-2.859.663-3.362 1.845c-.502 1.183 3.155-.131 3.835-.692-.326-.474-.355-.591-.473-1.153zm3.297.068c-1.752 2.755-1.578 7.007.467 11.373l.367.781-.318.803a3.175 3.175 0 0 0-.208 1.611c.329 2.411 3.599 3.509 6.498 3.509 2.907 0 6.196-1.103 6.545-3.524.091-.637-.019-1.279-.33-1.905l-.416-.84.378-.857c1.878-4.251 1.97-8.371.244-11.019-1.297-1.992-3.575-3.044-6.587-3.044-3.05 0-5.346 1.076-6.64 3.112zm20.093 1.777c-.503-1.183-3.361-1.846-3.361-1.846-.118.562-.149.68-.474 1.153.681.562 4.338 1.875 3.835.693zm-18.57-6.097s-3.595-2.477-3.735-5.015c-.404 2.175-.584 5.613.705 6.983.644-.323 1.66-1.405 3.03-1.968zm10.232-.094s3.595-2.476 3.736-5.015c.403 2.175.584 5.614-.705 6.983-.645-.323-1.66-1.405-3.031-1.968zM23.714-.012c13.089 0 23.702 10.611 23.702 23.701S36.803 47.392 23.714 47.392C10.624 47.392.013 36.779.013 23.689S10.624-.012 23.714-.012zm0 45.403c-11.966 0-21.701-9.735-21.701-21.702 0-11.966 9.735-21.701 21.701-21.701 11.966 0 21.702 9.735 21.702 21.701 0 11.967-9.736 21.702-21.702 21.702z" class="cls-1"/></svg>