<svg xmlns="http://www.w3.org/2000/svg" preserveAspectRatio="xMidYMid" width="20.63" height="19.719" viewBox="0 0 20.63 19.719"><defs><style>.cls-1{fill:#fff;fill-rule:evenodd}</style></defs><path d="M20.575 4.429l-1.203 8.912c-.184.922-1.024 1.635-1.882 1.635H6.61c-.859 0-1.697-.713-1.879-1.635L3.262 3.054c-.146-.732-.157-.976-.137-1.054H1A1 1 0 1 1 1-.001h4a1 1 0 0 1 1 1 .99.99 0 0 1-.898.98h13.965c1.105 0 1.773 1.131 1.508 2.45zM5.418 3.947l1.313 9h10.672c-.005 0-.004-.003.004-.014l1.186-8.788s.028-.198.031-.198H5.418zm1.827 12.008a1.876 1.876 0 0 1 0 3.749 1.874 1.874 0 1 1 0-3.749zm9.001 0a1.875 1.875 0 1 1-.002 3.75 1.875 1.875 0 0 1 .002-3.75z" class="cls-1"/></svg>