<svg xmlns="http://www.w3.org/2000/svg" preserveAspectRatio="xMidYMid" width="47.375" height="47.38" viewBox="0 0 47.375 47.38"><defs><style>.cls-1{fill:#323232;fill-rule:evenodd}</style></defs><path d="M23.687 47.392c-13.09 0-23.701-10.613-23.701-23.703S10.597-.012 23.687-.012c13.089 0 23.702 10.611 23.702 23.701S36.776 47.392 23.687 47.392zm0-45.404c-11.966 0-21.701 9.735-21.701 21.701 0 11.967 9.735 21.702 21.701 21.702 11.966 0 21.702-9.735 21.702-21.702 0-11.966-9.736-21.701-21.702-21.701zm7.657 29.201H15.812a.81.81 0 0 1-.81-.809V15.701c0-2.291.892-4.445 2.512-6.064a8.519 8.519 0 0 1 6.064-2.512c2.29 0 4.444.892 6.063 2.512a8.517 8.517 0 0 1 2.512 6.064V30.38a.809.809 0 0 1-.809.809zm-.809-11.35c-.634-.214-1.032-.656-1.345-1.004-.37-.41-.551-.593-.946-.595-.023.013-.137.092-.309.427-.173.336-.333.788-.488 1.226-.204.575-.415 1.169-.697 1.648-.425.718-.969 1.082-1.619 1.082s-1.195-.364-1.619-1.082c-.283-.479-.493-1.073-.697-1.648-.155-.438-.315-.89-.488-1.226-.173-.334-.285-.414-.309-.427-.395.002-.576.185-.945.595-.43.477-1.018 1.131-2.155 1.131-1.137 0-1.725-.654-2.155-1.131a9.523 9.523 0 0 0-.142-.156v10.892h13.914v-9.732zm-4.908 18.312a2.049 2.049 0 1 1-4.098 0v-6.164h4.098v6.164z" class="cls-1"/></svg>