<svg xmlns="http://www.w3.org/2000/svg" preserveAspectRatio="xMidYMid" width="47.375" height="47.38" viewBox="0 0 47.375 47.38"><defs><style>.cls-1{fill:#323232;fill-rule:evenodd}</style></defs><path d="M23.687 47.391c-13.09 0-23.701-10.612-23.701-23.702 0-13.09 10.611-23.701 23.701-23.701 13.089 0 23.702 10.611 23.702 23.701S36.776 47.391 23.687 47.391zm0-45.403c-11.966 0-21.701 9.735-21.701 21.701 0 11.967 9.735 21.702 21.701 21.702 11.966 0 21.702-9.735 21.702-21.702 0-11.966-9.736-21.701-21.702-21.701zm-.062 37.827s-22.24-10.188 0-32.75c22.24 22.562 0 32.75 0 32.75zm-1.042-28.648c-1.305 1.507-2.426 2.981-3.356 4.419l3.356 2.628v-7.047zm0 9.499l-4.4-3.379a22.06 22.06 0 0 0-1.464 3.24l5.864 3.775v-3.636zm0 6.015l-6.452-4.154c-.255 1.123-.403 2.225-.381 3.291l6.833 4.484v-3.621zm0 6l-6.417-4.131c1.106 4.143 4.317 6.926 6.417 8.336v-4.205zm2-21.611v7.416l3.63-2.598c-.988-1.564-2.198-3.17-3.63-4.818zm4.644 6.537l-4.623 3.183-.021 3.68 5.981-3.85a21.64 21.64 0 0 0-1.337-3.013zm1.913 5.02l-6.536 4.162-.021 3.681 6.894-4.408c.046-1.112-.078-2.259-.337-3.435zm-6.536 10.162l-.021 4.165c2.071-1.367 5.305-4.117 6.464-8.266l-6.443 4.101z" class="cls-1"/></svg>