<svg xmlns="http://www.w3.org/2000/svg" preserveAspectRatio="xMidYMid" width="47.406" height="47.38" viewBox="0 0 47.406 47.38"><defs><style>.cls-1{fill:#323232;fill-rule:evenodd}</style></defs><path d="M23.714 47.391C10.624 47.391.013 36.779.013 23.689c0-13.09 10.611-23.701 23.701-23.701 13.089 0 23.702 10.611 23.702 23.701S36.803 47.391 23.714 47.391zm0-45.403c-11.966 0-21.701 9.735-21.701 21.701 0 11.967 9.735 21.702 21.701 21.702 11.966 0 21.702-9.735 21.702-21.702 0-11.966-9.736-21.701-21.702-21.701zm11.817 23.201h-4a1 1 0 1 1 0-2h4a1 1 0 0 1 0 2zm0-4h-4a1 1 0 1 1 0-2h4a1 1 0 0 1 0 2zm0-4h-4a1 1 0 1 1 0-2h4a1 1 0 0 1 0 2zm0-4h-4a1 1 0 1 1 0-2h4a1 1 0 0 1 0 2zM23.554 38.523c-3.75 0-6.823-3.039-6.823-6.774 0-1.618.822-3.282 1.822-4.603V12.305c0-2.729 2.244-4.949 5-4.949 2.757 0 5 2.22 5 4.949v14.91c1 1.285 1.778 2.894 1.778 4.534a6.776 6.776 0 0 1-6.777 6.774zm3.045-10.489V12.305c0-1.626-1.374-2.949-3-2.949s-3 1.323-3 2.949V27.97c-1 .884-1.845 2.271-1.845 3.779 0 2.633 2.168 4.774 4.8 4.774 2.633 0 4.799-2.141 4.799-4.774 0-1.48-.754-2.827-1.754-3.715zm-3.113 6.348a2.774 2.774 0 0 1-2.774-2.774c0-1.215.786-2.236 1.873-2.611V12.165a.95.95 0 0 1 1.898 0v16.861a2.77 2.77 0 0 1-.997 5.356z" class="cls-1"/></svg>