<svg xmlns="http://www.w3.org/2000/svg" preserveAspectRatio="xMidYMid" width="31.376" height="31.41" viewBox="0 0 31.376 31.41"><defs><style>.cls-1{fill:#fff;opacity:.8;fill-rule:evenodd}</style></defs><path d="M15.677 31.391c-8.666 0-15.691-7.025-15.691-15.692C-.014 7.033 7.011.008 15.677.008s15.692 7.025 15.692 15.691c0 8.667-7.026 15.692-15.692 15.692zm8.017-21.829c0-.963-.782-1.745-1.745-1.745H9.621c-.963 0-1.745.782-1.745 1.745v12.311c0 .964.781 1.745 1.745 1.745h12.328c.963 0 1.745-.781 1.745-1.745V9.562zm-2.322 3.121h-1.864a.612.612 0 0 1-.612-.612v-1.864c0-.338.274-.611.612-.611h1.864c.338 0 .612.273.612.611v1.864a.612.612 0 0 1-.612.612zm-5.562 5.906a2.838 2.838 0 0 1 0-5.677c1.568 0 3.066 1.144 3.066 2.838 0 1.694-1.498 2.839-3.066 2.839zm-.001 2.087a4.922 4.922 0 0 0 4.765-6.159c.883.002 1.379 0 1.379 0v6.785a.612.612 0 0 1-.611.612H10.277a.612.612 0 0 1-.612-.612v-6.785h1.38a4.92 4.92 0 0 0 4.764 6.159z" class="cls-1"/></svg>